#define beam_width 16
#define beam_height 16
static unsigned char beam_bits[] = {
   0x00, 0x00, 0x00, 0x18, 0x00, 0x17, 0xe0, 0x10, 0x20, 0x1c, 0xa0, 0x13,
   0x60, 0x10, 0x20, 0x10, 0x20, 0x10, 0x20, 0x10, 0x20, 0x1c, 0x20, 0x1e,
   0x38, 0x0e, 0x3c, 0x00, 0x1c, 0x00, 0x00, 0x00};
