#define break_width 16
#define break_height 16
static unsigned char break_bits[] = {
   0x00, 0x00, 0x80, 0x02, 0x80, 0x32, 0x80, 0x2a, 0xb0, 0x22, 0x90, 0x22,
   0x10, 0x20, 0x10, 0x20, 0x10, 0x20, 0x10, 0x20, 0x10, 0x38, 0x10, 0x3c,
   0x1c, 0x1c, 0x1e, 0x00, 0x0e, 0x00, 0x00, 0x00};
