#define chord_width 16
#define chord_height 16
static unsigned char chord_bits[] = {
   0x00, 0x00, 0x00, 0x02, 0x00, 0x02, 0x00, 0x02, 0x00, 0x02, 0x00, 0x02,
   0x00, 0x02, 0x80, 0x03, 0xc0, 0x03, 0xc0, 0x03, 0x00, 0x02, 0x80, 0x03,
   0xc0, 0x03, 0xc0, 0x01, 0x00, 0x00, 0x00, 0x00};
