#define copy_width 16
#define copy_height 16
static unsigned char copy_bits[] = {
   0x00, 0x00, 0xfe, 0x01, 0x82, 0x02, 0xba, 0x07, 0x02, 0x04, 0x5a, 0x04,
   0xe2, 0x1f, 0x3a, 0x28, 0xa2, 0x7b, 0x3e, 0x40, 0xa0, 0x55, 0x20, 0x40,
   0xa0, 0x45, 0x20, 0x40, 0xe0, 0x7f, 0x00, 0x00};
