#define cut_width 16
#define cut_height 16
static unsigned char cut_bits[] = {
   0x00, 0x00, 0x00, 0x00, 0x00, 0x00, 0x1c, 0x38, 0x22, 0x3c, 0x22, 0x0f,
   0xe2, 0x03, 0xfc, 0x00, 0xfc, 0x00, 0xe2, 0x03, 0x22, 0x0f, 0x22, 0x3e,
   0x1c, 0x38, 0x00, 0x00, 0x00, 0x00, 0x00, 0x00};
