#define decrescendo_width 16
#define decrescendo_height 16
static unsigned char decrescendo_bits[] = {
   0x00, 0x00, 0x00, 0x00, 0x00, 0x00, 0x00, 0x00, 0x00, 0x00, 0x3c, 0x00,
   0xe0, 0x03, 0x00, 0x1e, 0xe0, 0x03, 0x3c, 0x00, 0x00, 0x00, 0x00, 0x00,
   0x00, 0x00, 0x00, 0x00, 0x00, 0x00, 0x00, 0x00};
