#define dynamic_width 16
#define dynamic_height 16
static unsigned char dynamic_bits[] = {
   0x00, 0x00, 0x00, 0x00, 0x00, 0x06, 0x00, 0x05, 0x80, 0x01, 0x80, 0x01,
   0x80, 0x01, 0xe0, 0x07, 0xc0, 0x00, 0xc0, 0x00, 0x40, 0x00, 0x60, 0x00,
   0x60, 0x00, 0x20, 0x00, 0x18, 0x00, 0x00, 0x00};
