#define edit_chord_width 16
#define edit_chord_height 16
static unsigned char edit_chord_bits[] = {
   0x00, 0x00, 0x00, 0x00, 0x00, 0x02, 0x00, 0x02, 0x02, 0x42, 0x06, 0x62,
   0x0e, 0x72, 0x1e, 0x7a, 0x0e, 0x72, 0xc6, 0x63, 0xe2, 0x43, 0xf0, 0x03,
   0xf0, 0x01, 0xe0, 0x00, 0x00, 0x00, 0x00, 0x00};
