#define edit_width 16
#define edit_height 16
static unsigned char edit_bits[] = {
   0x00, 0x00, 0x20, 0x00, 0x70, 0x20, 0xd8, 0x20, 0x8c, 0x21, 0x8e, 0x23,
   0x88, 0x20, 0x88, 0x20, 0x8e, 0x23, 0x8c, 0x21, 0xd8, 0x3c, 0x70, 0x3e,
   0x20, 0x3e, 0x00, 0x1e, 0x00, 0x00, 0x00, 0x00};
