#define event_list_width 16
#define event_list_height 16
static unsigned char event_list_bits[] = {
   0x00, 0x00, 0x00, 0x00, 0xfc, 0x1f, 0x04, 0x10, 0xe4, 0x12, 0x04, 0x10,
   0x64, 0x11, 0x04, 0x10, 0xe4, 0x13, 0x04, 0x10, 0xe4, 0x12, 0x04, 0x10,
   0xe4, 0x13, 0x04, 0x10, 0xfc, 0x1f, 0x00, 0x00};
