#define new_width 16
#define new_height 16
static unsigned char new_bits[] = {
   0x00, 0x00, 0xf8, 0x01, 0x08, 0x03, 0x08, 0x05, 0x08, 0x09, 0x08, 0x1f,
   0x08, 0x10, 0x08, 0x10, 0x08, 0x10, 0x08, 0x10, 0x08, 0x10, 0x08, 0x10,
   0x08, 0x10, 0x08, 0x10, 0xf8, 0x1f, 0x00, 0x00};
