#define ninja_cross_width 16
#define ninja_cross_height 16
static unsigned char ninja_cross_bits[] = {
   0x00, 0x00, 0x00, 0x00, 0x18, 0x10, 0x3c, 0x18, 0x38, 0x0c, 0x70, 0x06,
   0xe0, 0x07, 0xc0, 0x03, 0xc0, 0x01, 0xe0, 0x03, 0x70, 0x06, 0x38, 0x06,
   0x1c, 0x0c, 0x08, 0x18, 0x00, 0x10, 0x00, 0x00};
