#define open_width 16
#define open_height 16
static unsigned char open_bits[] = {
   0x00, 0x00, 0x00, 0x00, 0xfc, 0x0f, 0x74, 0x0b, 0x04, 0x08, 0xd4, 0x7f,
   0x24, 0x40, 0x24, 0x40, 0x14, 0x20, 0x14, 0x20, 0x0c, 0x10, 0x0c, 0x10,
   0x04, 0x08, 0xfc, 0x0f, 0x00, 0x00, 0x00, 0x00};
