#define paste_width 16
#define paste_height 16
static unsigned char paste_bits[] = {
   0x00, 0x00, 0xe0, 0x07, 0x78, 0x1d, 0xa4, 0x26, 0xcc, 0x2b, 0x24, 0x22,
   0x8c, 0x28, 0xa4, 0x7f, 0x8c, 0xa0, 0xa4, 0xe6, 0x8c, 0x80, 0xa4, 0x92,
   0x8c, 0x80, 0xa4, 0x80, 0xfc, 0x80, 0x80, 0xff};
