#define piano_roll_width 16
#define piano_roll_height 16
static unsigned char piano_roll_bits[] = {
   0x00, 0x00, 0x00, 0x00, 0xfc, 0x3f, 0x00, 0x00, 0xe0, 0x03, 0xe0, 0x03,
   0x00, 0x00, 0x00, 0x07, 0x00, 0x07, 0x3c, 0x00, 0x3c, 0x3e, 0x00, 0x3e,
   0x00, 0x00, 0xfc, 0x3f, 0x00, 0x00, 0x00, 0x00};
