#define quantize_width 16
#define quantize_height 16
static unsigned char quantize_bits[] = {
   0x00, 0x00, 0x00, 0x00, 0xc0, 0x03, 0x60, 0x06, 0x30, 0x0c, 0x30, 0x0c,
   0x18, 0x18, 0x18, 0x18, 0x18, 0x18, 0x18, 0x18, 0x30, 0x0b, 0x30, 0x0b,
   0x60, 0x06, 0xc0, 0x0c, 0x00, 0x18, 0x00, 0x00};
