#define record_width 16
#define record_height 16
static unsigned char record_bits[] = {
   0x00, 0x00, 0x00, 0x00, 0xf0, 0x3f, 0x00, 0x28, 0x40, 0x28, 0xc0, 0x28,
   0x7c, 0x29, 0x04, 0x2a, 0x04, 0x2a, 0x7c, 0x29, 0xc0, 0x28, 0x40, 0x28,
   0x00, 0x28, 0xf0, 0x3f, 0x00, 0x00, 0x00, 0x00};
