#define redo_width 16
#define redo_height 16
static unsigned char redo_bits[] = {
   0x00, 0x00, 0x00, 0x00, 0x00, 0x00, 0x00, 0x00, 0x00, 0x00, 0xe0, 0x03,
   0xf0, 0x27, 0x18, 0x2c, 0x08, 0x38, 0x04, 0x3e, 0x00, 0x38, 0x00, 0x20,
   0x00, 0x00, 0x00, 0x00, 0x00, 0x00, 0x00, 0x00};
