#define rrwd_width 16
#define rrwd_height 16
static unsigned char rrwd_bits[] = {
   0x00, 0x00, 0x00, 0x00, 0x18, 0x04, 0x18, 0x02, 0x18, 0x03, 0x98, 0x03,
   0xf8, 0x03, 0xf8, 0x03, 0xf8, 0x03, 0x98, 0x03, 0x18, 0x03, 0x18, 0x02,
   0x18, 0x04, 0x00, 0x00, 0x00, 0x00, 0x00, 0x00};
