#define rubbish_width 16
#define rubbish_height 16
static unsigned char rubbish_bits[] = {
   0x00, 0x00, 0x80, 0x03, 0x70, 0x1c, 0x8c, 0x63, 0x04, 0x40, 0x38, 0x38,
   0xc8, 0x27, 0x28, 0x20, 0xa8, 0x22, 0xa8, 0x22, 0xa8, 0x22, 0xa8, 0x22,
   0x88, 0x22, 0x30, 0x18, 0xc0, 0x07, 0x00, 0x00};
