#define rwd_width 16
#define rwd_height 16
static unsigned char rwd_bits[] = {
   0x00, 0x00, 0x00, 0x00, 0x80, 0x20, 0x40, 0x10, 0x60, 0x18, 0x70, 0x1c,
   0x78, 0x1e, 0x7c, 0x1f, 0x78, 0x1e, 0x70, 0x1c, 0x60, 0x18, 0x40, 0x10,
   0x80, 0x20, 0x00, 0x00, 0x00, 0x00, 0x00, 0x00};
