#define save_width 16
#define save_height 16
static unsigned char save_bits[] = {
   0x00, 0x00, 0xfe, 0x7f, 0x0a, 0x50, 0x0a, 0x50, 0x0a, 0x56, 0x0a, 0x50,
   0x8a, 0x57, 0x0a, 0x50, 0xfa, 0x5f, 0x02, 0x40, 0xfa, 0x5f, 0x0a, 0x50,
   0x6a, 0x50, 0x6c, 0x50, 0xf8, 0x7f, 0x00, 0x00};
