#define sequence_width 16
#define sequence_height 16
static unsigned char sequence_bits[] = {
   0x00, 0x00, 0x00, 0x00, 0x00, 0x00, 0x64, 0x00, 0xec, 0x01, 0xec, 0x07,
   0xec, 0x1f, 0xec, 0x7f, 0xec, 0x1f, 0xec, 0x07, 0xec, 0x01, 0x64, 0x00,
   0x00, 0x00, 0x00, 0x00, 0x00, 0x00, 0x00, 0x00};
