#define skp_width 16
#define skp_height 16
static unsigned char skp_bits[] = {
   0x00, 0x00, 0x00, 0x00, 0x10, 0x0c, 0x20, 0x0c, 0x60, 0x0c, 0xe0, 0x0c,
   0xe0, 0x0f, 0xe0, 0x0f, 0xe0, 0x0f, 0xe0, 0x0c, 0x60, 0x0c, 0x20, 0x0c,
   0x10, 0x0c, 0x00, 0x00, 0x00, 0x00, 0x00, 0x00};
