#define slur_width 16
#define slur_height 16
static unsigned char slur_bits[] = {
   0x00, 0x00, 0x00, 0x0f, 0xc0, 0x10, 0x20, 0x00, 0x10, 0x38, 0x00, 0x3c,
   0x38, 0x1c, 0x3c, 0x04, 0x1c, 0x04, 0x04, 0x04, 0x04, 0x04, 0x04, 0x04,
   0x04, 0x04, 0x04, 0x00, 0x04, 0x00, 0x00, 0x00};
