#define text2_width 16
#define text2_height 16
static unsigned char text2_bits[] = {
   0xd8, 0x00, 0xd8, 0x00, 0xd8, 0x00, 0x00, 0x00, 0xfc, 0x3f, 0x00, 0x00,
   0xfc, 0x3f, 0x00, 0x00, 0xfc, 0x3f, 0x00, 0x00, 0xfc, 0x3f, 0x00, 0x00,
   0xfc, 0x3f, 0x00, 0x00, 0x00, 0x00, 0x00, 0x00};
