#define text3_width 16
#define text3_height 16
static unsigned char text3_bits[] = {
   0x00, 0x00, 0x00, 0x00, 0x00, 0x00, 0x00, 0x00, 0xfc, 0x3f, 0x00, 0x00,
   0xfc, 0x3f, 0x00, 0x00, 0xfc, 0x3f, 0x00, 0x00, 0xfc, 0x3f, 0x00, 0x00,
   0xfc, 0x3f, 0x00, 0x00, 0xd8, 0x00, 0xd8, 0x00};
