#define text4_width 16
#define text4_height 16
static unsigned char text4_bits[] = {
   0x00, 0x00, 0x00, 0x00, 0x00, 0x00, 0x00, 0x00, 0xfc, 0x3f, 0x00, 0x00,
   0xfc, 0x3f, 0x00, 0x00, 0xfc, 0x3f, 0x00, 0x00, 0xfc, 0x3f, 0x00, 0x00,
   0xfc, 0x3f, 0x00, 0x00, 0xd8, 0x00, 0x6c, 0x00};
