#define tie_width 16
#define tie_height 16
static unsigned char tie_bits[] = {
   0x00, 0x00, 0x00, 0x00, 0xc0, 0x07, 0x20, 0x08, 0x00, 0x00, 0x38, 0x1c,
   0x3c, 0x1e, 0x1c, 0x0e, 0x04, 0x02, 0x04, 0x02, 0x04, 0x02, 0x04, 0x02,
   0x04, 0x02, 0x04, 0x02, 0x00, 0x00, 0x00, 0x00};
