#define tuplet_width 16
#define tuplet_height 16
static unsigned char tuplet_bits[] = {
   0x00, 0x38, 0x00, 0x2f, 0xe0, 0x21, 0x38, 0x21, 0x08, 0x21, 0x08, 0x21,
   0x08, 0x31, 0x08, 0x39, 0x88, 0x19, 0xc8, 0x01, 0xcc, 0x0c, 0x0e, 0x10,
   0x06, 0x0c, 0x00, 0x10, 0x00, 0x0c, 0x00, 0x00};
