#define undo_width 16
#define undo_height 16
static unsigned char undo_bits[] = {
   0x00, 0x00, 0x00, 0x00, 0x00, 0x00, 0x00, 0x00, 0x00, 0x00, 0xc0, 0x07,
   0xe4, 0x0f, 0x34, 0x18, 0x1c, 0x10, 0x7c, 0x20, 0x1c, 0x00, 0x04, 0x00,
   0x00, 0x00, 0x00, 0x00, 0x00, 0x00, 0x00, 0x00};
