#define buffer_width 14
#define buffer_height 16
static char buffer_bits[] = {
   0x00, 0x00, 0xfc, 0x0f, 0x04, 0x08, 0x94, 0x08, 0x74, 0x0b, 0x04, 0x08,
   0xd4, 0x09, 0x04, 0x08, 0x74, 0x0b, 0x04, 0x09, 0xf4, 0x08, 0x44, 0x0b,
   0x04, 0x08, 0xfc, 0x0f, 0x00, 0x00, 0x00, 0x00};
