#define chordmod_dot_width 9
#define chordmod_dot_height 7
static char chordmod_dot_bits[] = {
   0x00, 0x00, 0x00, 0x00, 0x00, 0x00, 0x18, 0x00, 0x18, 0x00, 0x00, 0x00,
   0x00, 0x00};
