#define chordmod_turn_width 9
#define chordmod_turn_height 7
static char chordmod_turn_bits[] = {
   0x00, 0x00, 0x00, 0x00, 0xce, 0x00, 0x99, 0x00, 0x73, 0x00, 0x00, 0x00,
   0x00, 0x00};
