#define chordmod_trill_width 9
#define chordmod_trill_height 7
static char chordmod_trill_bits[] = {
   0x08, 0x00, 0x04, 0x00, 0xbf, 0x01, 0x62, 0x01, 0x23, 0x00, 0x16, 0x00,
   0x00, 0x00};
