#define chordmod_rfz_width 9
#define chordmod_rfz_height 7
static char chordmod_rfz_bits[] = {
   0x80, 0x01, 0x5a, 0x00, 0x46, 0x00, 0xf2, 0x00, 0x21, 0x00, 0x11, 0x00,
   0x10, 0x00};
