#define chordmod_legato_width 9
#define chordmod_legato_height 7
static char chordmod_legato_bits[] = {
   0x00, 0x00, 0x00, 0x00, 0x00, 0x00, 0x00, 0x00, 0xff, 0x00, 0x00, 0x00,
   0x00, 0x00};
