#define chordmod_dash_width 9
#define chordmod_dash_height 7
static char chordmod_dash_bits[] = {
   0x00, 0x00, 0x00, 0x00, 0x18, 0x00, 0x18, 0x00, 0x10, 0x00, 0x00, 0x00,
   0x00, 0x00};
