#define chordmod_pause_width 13
#define chordmod_pause_height 9
static unsigned char chordmod_pause_bits[] = {
   0x00, 0x00, 0xf0, 0x01, 0x0c, 0x06, 0x04, 0x04, 0x02, 0x08, 0x42, 0x08,
   0xe2, 0x08, 0x40, 0x00, 0x00, 0x00};
