#define chordmod_accent_width 9
#define chordmod_accent_height 7
static char chordmod_accent_bits[] = {
   0x00, 0x00, 0x0e, 0x00, 0x38, 0x00, 0xe0, 0x00, 0x38, 0x00, 0x0e, 0x00,
   0x00, 0x00};
