#define chordmod_sfz_width 9
#define chordmod_sfz_height 7
static char chordmod_sfz_bits[] = {
   0x80, 0x01, 0x5c, 0x00, 0x42, 0x00, 0xfe, 0x00, 0x28, 0x00, 0x17, 0x00,
   0x10, 0x00};
