#define clef_bass_width 24
#define clef_bass_height 53
static char clef_bass_bits[] = {
   0x00, 0x00, 0x00, 0x00, 0x00, 0x00, 0x00, 0x00, 0x00, 0x00, 0x00, 0x00,
   0x00, 0x00, 0x00, 0x00, 0x00, 0x00, 0x00, 0x00, 0x00, 0x00, 0x00, 0x00,
   0x00, 0x00, 0x00, 0xc0, 0x7f, 0x00, 0x70, 0xf0, 0x00, 0x18, 0xc0, 0x01,
   0x18, 0x80, 0x03, 0x0c, 0x80, 0x03, 0x0c, 0x00, 0x67, 0x3c, 0x00, 0x67,
   0x7c, 0x00, 0x07, 0x7c, 0x00, 0x07, 0x7c, 0x00, 0x07, 0x38, 0x00, 0x67,
   0x00, 0x00, 0x67, 0x00, 0x00, 0x07, 0x00, 0x80, 0x03, 0x00, 0x80, 0x03,
   0x00, 0x80, 0x03, 0x00, 0xc0, 0x01, 0x00, 0xc0, 0x01, 0x00, 0xc0, 0x01,
   0x00, 0xe0, 0x00, 0x00, 0x60, 0x00, 0x00, 0x70, 0x00, 0x00, 0x30, 0x00,
   0x00, 0x18, 0x00, 0x00, 0x0c, 0x00, 0x00, 0x06, 0x00, 0x00, 0x03, 0x00,
   0x80, 0x01, 0x00, 0x60, 0x00, 0x00, 0x00, 0x00, 0x00, 0x00, 0x00, 0x00,
   0x00, 0x00, 0x00, 0x00, 0x00, 0x00, 0x00, 0x00, 0x00, 0x00, 0x00, 0x00,
   0x00, 0x00, 0x00, 0x00, 0x00, 0x00, 0x00, 0x00, 0x00, 0x00, 0x00, 0x00,
   0x00, 0x00, 0x00, 0x00, 0x00, 0x00, 0x00, 0x00, 0x00, 0x00, 0x00, 0x00,
   0x00, 0x00, 0x00};
