#define clef_tenor_width 24
#define clef_tenor_height 53
static char clef_tenor_bits[] = {
   0x26, 0xf8, 0x03, 0x26, 0x06, 0x0f, 0x26, 0x03, 0x1c, 0xa6, 0x07, 0x38,
   0xa6, 0x07, 0x38, 0xa6, 0x07, 0x70, 0x26, 0x03, 0x70, 0x26, 0x00, 0x70,
   0x26, 0x00, 0x70, 0x26, 0x00, 0x70, 0x26, 0x00, 0x70, 0x26, 0x00, 0x38,
   0x26, 0x08, 0x38, 0x26, 0x18, 0x1c, 0x26, 0x38, 0x0f, 0x26, 0xfc, 0x03,
   0xa6, 0x07, 0x00, 0xe6, 0x03, 0x00, 0xa6, 0x07, 0x00, 0x26, 0xfc, 0x03,
   0x26, 0x38, 0x0f, 0x26, 0x18, 0x1c, 0x26, 0x08, 0x38, 0x26, 0x00, 0x38,
   0x26, 0x00, 0x70, 0x26, 0x00, 0x70, 0x26, 0x00, 0x70, 0x26, 0x00, 0x70,
   0x26, 0x03, 0x70, 0xa6, 0x07, 0x70, 0xa6, 0x07, 0x38, 0xa6, 0x07, 0x38,
   0x26, 0x03, 0x1c, 0x26, 0x06, 0x0f, 0x26, 0xf8, 0x03, 0x00, 0x00, 0x00,
   0x00, 0x00, 0x00, 0x00, 0x00, 0x00, 0x00, 0x00, 0x00, 0x00, 0x00, 0x00,
   0x00, 0x00, 0x00, 0x00, 0x00, 0x00, 0x00, 0x00, 0x00, 0x00, 0x00, 0x00,
   0x00, 0x00, 0x00, 0x00, 0x00, 0x00, 0x00, 0x00, 0x00, 0x00, 0x00, 0x00,
   0x00, 0x00, 0x00, 0x00, 0x00, 0x00, 0x00, 0x00, 0x00, 0x00, 0x00, 0x00,
   0x00, 0x00, 0x00};
