#define dot_width 4
#define dot_height 8
static char dot_bits[] = {
   0x00, 0x00, 0x00, 0x06, 0x06, 0x00, 0x00, 0x00};
