#define drag_mask_width 11
#define drag_mask_height 16
#define drag_mask_x_hot 5
#define drag_mask_y_hot 7
static char drag_mask_bits[] = {
   0xfe, 0x03, 0xfe, 0x03, 0xf8, 0x00, 0xf8, 0x00, 0xf8, 0x00, 0xf8, 0x00,
   0xf8, 0x00, 0xf8, 0x00, 0xf8, 0x00, 0xf8, 0x00, 0xf8, 0x00, 0xf8, 0x00,
   0xf8, 0x00, 0xf8, 0x00, 0xfe, 0x03, 0xfe, 0x03};
