#define drag_width 11
#define drag_height 16
#define drag_x_hot 5
#define drag_y_hot 7
static char drag_bits[] = {
   0xdc, 0x01, 0x50, 0x00, 0x50, 0x00, 0x50, 0x00, 0x50, 0x00, 0x50, 0x00,
   0x50, 0x00, 0x50, 0x00, 0x50, 0x00, 0x50, 0x00, 0x50, 0x00, 0x50, 0x00,
   0x50, 0x00, 0x50, 0x00, 0x50, 0x00, 0xdc, 0x01};
