#define ffwd_width 32
#define ffwd_height 15
static char ffwd_bits[] = {
   0x00, 0x00, 0x00, 0x00, 0xa0, 0x01, 0x1a, 0x00, 0xa0, 0x02, 0x2a, 0x00,
   0xa0, 0x04, 0x4a, 0x00, 0xa0, 0x08, 0x8a, 0x00, 0xa0, 0x10, 0x0a, 0x01,
   0xa0, 0x20, 0x0a, 0x02, 0xa0, 0x40, 0x0a, 0x04, 0xa0, 0x20, 0x0a, 0x02,
   0xa0, 0x10, 0x0a, 0x01, 0xa0, 0x08, 0x8a, 0x00, 0xa0, 0x04, 0x4a, 0x00,
   0xa0, 0x02, 0x2a, 0x00, 0xa0, 0x01, 0x1a, 0x00, 0x00, 0x00, 0x00, 0x00};
