#define hour1_width 16
#define hour1_height 16
#define hour1_x_hot 7
#define hour1_y_hot 7
static char hour1_bits[] = {
   0xfc, 0x3f, 0x04, 0x20, 0x74, 0x28, 0xf4, 0x2d, 0xe8, 0x17, 0xe8, 0x17,
   0xd0, 0x0b, 0xa0, 0x05, 0xa0, 0x04, 0x10, 0x09, 0x08, 0x11, 0x08, 0x10,
   0x04, 0x21, 0x84, 0x20, 0xc4, 0x23, 0xfc, 0x3f};
