#define hour6_width 16
#define hour6_height 16
#define hour6_x_hot 7
#define hour6_y_hot 7
static char hour6_bits[] = {
   0xfc, 0x3f, 0x04, 0x20, 0x04, 0x20, 0x04, 0x20, 0x08, 0x10, 0x08, 0x10,
   0xd0, 0x0b, 0xa0, 0x05, 0xa0, 0x04, 0x90, 0x09, 0x88, 0x13, 0xc8, 0x17,
   0xf4, 0x27, 0xf4, 0x2f, 0xfc, 0x3f, 0xfc, 0x3f};
