#define hour5_width 16
#define hour5_height 16
#define hour5_x_hot 7
#define hour5_y_hot 7
static char hour5_bits[] = {
   0xfc, 0x3f, 0x04, 0x20, 0x04, 0x20, 0x14, 0x20, 0x28, 0x10, 0xe8, 0x16,
   0xd0, 0x0b, 0xa0, 0x05, 0x20, 0x05, 0x90, 0x08, 0x88, 0x11, 0xc8, 0x13,
   0xe4, 0x27, 0xf4, 0x2f, 0xfc, 0x3f, 0xfc, 0x3f};
