#define hour3_width 16
#define hour3_height 16
#define hour3_x_hot 7
#define hour3_y_hot 7
static char hour3_bits[] = {
   0xfc, 0x3f, 0x04, 0x20, 0x14, 0x20, 0x34, 0x28, 0xe8, 0x16, 0xe8, 0x17,
   0xd0, 0x0b, 0xa0, 0x05, 0xa0, 0x05, 0x90, 0x08, 0x88, 0x10, 0x08, 0x11,
   0x84, 0x21, 0xc4, 0x27, 0xf4, 0x2f, 0xfc, 0x3f};
