#define hour0_width 16
#define hour0_height 16
#define hour0_x_hot 7
#define hour0_y_hot 7
static char hour0_bits[] = {
   0xfc, 0x3f, 0x04, 0x20, 0xf4, 0x29, 0xf4, 0x2f, 0xe8, 0x17, 0xe8, 0x17,
   0xd0, 0x0b, 0xa0, 0x05, 0xa0, 0x04, 0x10, 0x08, 0x08, 0x10, 0x08, 0x10,
   0x04, 0x20, 0x04, 0x20, 0x04, 0x20, 0xfc, 0x3f};
