#define hour7_width 16
#define hour7_height 16
#define hour7_x_hot 7
#define hour7_y_hot 7
static char hour7_bits[] = {
   0xfc, 0x3f, 0x04, 0x20, 0x04, 0x20, 0x04, 0x20, 0x08, 0x10, 0x08, 0x10,
   0x10, 0x08, 0x20, 0x05, 0xa0, 0x05, 0x90, 0x09, 0xc8, 0x13, 0xe8, 0x17,
   0xf4, 0x2f, 0xf4, 0x2f, 0xfc, 0x3f, 0xfc, 0x3f};
