#define hour2_width 16
#define hour2_height 16
#define hour2_x_hot 7
#define hour2_y_hot 7
static char hour2_bits[] = {
   0xfc, 0x3f, 0x04, 0x20, 0x34, 0x20, 0x74, 0x28, 0xe8, 0x17, 0xe8, 0x17,
   0xd0, 0x0b, 0xa0, 0x05, 0xa0, 0x05, 0x90, 0x08, 0x88, 0x10, 0x08, 0x11,
   0x04, 0x21, 0x84, 0x23, 0xe4, 0x27, 0xfc, 0x3f};
