#define hourglass_mask_width 16
#define hourglass_mask_height 16
#define hourglass_mask_x_hot 7
#define hourglass_mask_y_hot 7
static char hourglass_mask_bits[] = {
   0xfe, 0x7f, 0xfe, 0x7f, 0xfe, 0x7f, 0xfe, 0x7f, 0xfc, 0x3f, 0xfc, 0x3f,
   0xf8, 0x1f, 0xf0, 0x0f, 0xf0, 0x0f, 0xf8, 0x1f, 0xfc, 0x3f, 0xfc, 0x3f,
   0xfe, 0x7f, 0xfe, 0x7f, 0xfe, 0x7f, 0xfe, 0x7f};
