#define hour4_width 16
#define hour4_height 16
#define hour4_x_hot 7
#define hour4_y_hot 7
static char hour4_bits[] = {
   0xfc, 0x3f, 0x04, 0x20, 0x04, 0x20, 0x14, 0x28, 0xe8, 0x16, 0xe8, 0x17,
   0xd0, 0x0b, 0xa0, 0x05, 0x20, 0x05, 0x10, 0x09, 0x88, 0x10, 0x88, 0x11,
   0xe4, 0x27, 0xf4, 0x2f, 0xfc, 0x3f, 0xfc, 0x3f};
