#define note_bodyfilled_width 9
#define note_bodyfilled_height 8
static char note_bodyfilled_bits[] = {
   0x70, 0x00, 0xfc, 0x00, 0xfe, 0x00, 0xff, 0x00, 0xff, 0x00, 0x7f, 0x00,
   0x3f, 0x00, 0x0e, 0x00};
