#define notemod_sharp_width 6
#define notemod_sharp_height 14
static char notemod_sharp_bits[] = {
   0x10, 0x12, 0x32, 0x3e, 0x1f, 0x13, 0x12, 0x12, 0x32, 0x3e, 0x1f, 0x13,
   0x12, 0x02};
