#define notemod_natural_width 6
#define notemod_natural_height 14
static char notemod_natural_bits[] = {
   0x02, 0x02, 0x22, 0x32, 0x3e, 0x26, 0x22, 0x22, 0x32, 0x3e, 0x26, 0x22,
   0x20, 0x20};
