#define note_bodyempty_width 9
#define note_bodyempty_height 8
static char note_bodyempty_bits[] = {
   0x3c, 0x00, 0x46, 0x00, 0x83, 0x00, 0x81, 0x00, 0x81, 0x00, 0xc1, 0x00,
   0x62, 0x00, 0x3c, 0x00};
