#define notemod_flat_width 6
#define notemod_flat_height 14
static char notemod_flat_bits[] = {
   0x02, 0x02, 0x02, 0x02, 0x02, 0x02, 0x1a, 0x3e, 0x32, 0x32, 0x12, 0x0a,
   0x06, 0x02};
