#define notemod_sharp_width 8
#define notemod_sharp_height 16
static char notemod_sharp_bits[] = {
   0x00, 0x20, 0x24, 0x64, 0x7c, 0x3e, 0x26, 0x24, 0x24, 0x64, 0x7c, 0x3e,
   0x26, 0x24, 0x04, 0x00};
