#define notemod_natural_width 8
#define notemod_natural_height 16
static char notemod_natural_bits[] = {
   0x00, 0x04, 0x04, 0x44, 0x64, 0x7c, 0x4c, 0x44, 0x44, 0x64, 0x7c, 0x4c,
   0x44, 0x40, 0x40, 0x00};
