#define notemod_flat_width 8
#define notemod_flat_height 16
static char notemod_flat_bits[] = {
   0x00, 0x04, 0x04, 0x04, 0x04, 0x04, 0x04, 0x34, 0x7c, 0x64, 0x64, 0x24,
   0x14, 0x0c, 0x04, 0x00};
