#define playing_mask_width 16
#define playing_mask_height 16
static unsigned char playing_mask_bits[] = {
  0x70, 0x00, 0xf0, 0x00, 0xf0, 0x01, 0xf0, 0x07, 0xf0, 0x0f, 0x70, 0x1f,
  0x7c, 0x3e, 0x7e, 0x3c, 0x7f, 0x38, 0x7f, 0x38, 0x3e, 0x3e, 0x0c, 0x3f,
  0x80, 0x3f, 0x80, 0x3f, 0x00, 0x1f, 0x00, 0x06, };
