#define playing_width 16
#define playing_height 16
#define playing_x_hot 7
#define playing_y_hot 7
static unsigned char playing_bits[] = {
  0x00, 0x00, 0x60, 0x00, 0xe0, 0x00, 0xa0, 0x01, 0x20, 0x07, 0x20, 0x0e,
  0x20, 0x1c, 0x2c, 0x10, 0x3e, 0x10, 0x3e, 0x10, 0x0c, 0x10, 0x00, 0x16,
  0x00, 0x1f, 0x00, 0x1f, 0x00, 0x06, 0x00, 0x00, };
