#define rest_breve_width 6
#define rest_breve_height 37
static unsigned char rest_breve_bits[] = {
   0x00, 0x00, 0x00, 0x00, 0x00, 0x00, 0x00, 0x00, 0x00, 0x3f, 0x1e, 0x1e,
   0x1e, 0x1e, 0x1e, 0x1e, 0x1e, 0x1e, 0x3f, 0x00, 0x00, 0x00, 0x00, 0x00,
   0x00, 0x00, 0x00, 0x00, 0x00, 0x00, 0x00, 0x00, 0x00, 0x00, 0x00, 0x00,
   0x00};
