#define rewind_width 32
#define rewind_height 15
static char rewind_bits[] = {
   0x00, 0x00, 0x00, 0x00, 0x00, 0x58, 0x80, 0x05, 0x00, 0x54, 0x40, 0x05,
   0x00, 0x52, 0x20, 0x05, 0x00, 0x51, 0x10, 0x05, 0x80, 0x50, 0x08, 0x05,
   0x40, 0x50, 0x04, 0x05, 0x20, 0x50, 0x02, 0x05, 0x40, 0x50, 0x04, 0x05,
   0x80, 0x50, 0x08, 0x05, 0x00, 0x51, 0x10, 0x05, 0x00, 0x52, 0x20, 0x05,
   0x00, 0x54, 0x40, 0x05, 0x00, 0x58, 0x80, 0x05, 0x00, 0x00, 0x00, 0x00};
