#define right_width 12
#define right_height 12
static char right_bits[] = {
   0x00, 0x00, 0x00, 0x00, 0x1c, 0x00, 0x24, 0x00, 0x44, 0x00, 0x84, 0x00,
   0x04, 0x01, 0x84, 0x01, 0xc4, 0x00, 0x64, 0x00, 0x3c, 0x00, 0x1c, 0x00};
