#define rose_width 50
#define rose_height 50
static char rose_bits[] = {
   0x00, 0x00, 0x00, 0x00, 0x00, 0x00, 0x00, 0x00, 0x00, 0x00, 0x00, 0x00,
   0x00, 0x00, 0x00, 0x1c, 0x00, 0x00, 0x00, 0x00, 0x00, 0x00, 0x36, 0x00,
   0x00, 0x00, 0x00, 0x00, 0x80, 0x4e, 0x00, 0x00, 0x00, 0x00, 0x00, 0x80,
   0xb8, 0x00, 0x00, 0x00, 0x00, 0x00, 0x80, 0xd4, 0x00, 0x02, 0x00, 0x00,
   0x00, 0x00, 0x71, 0x01, 0x02, 0x00, 0x00, 0x00, 0x00, 0x5e, 0x07, 0x00,
   0x00, 0x00, 0x00, 0x80, 0x86, 0x0c, 0x02, 0x00, 0x00, 0x00, 0x80, 0xb5,
   0x0b, 0x02, 0x00, 0x00, 0x00, 0x00, 0xff, 0x14, 0x02, 0x00, 0x3c, 0x00,
   0x00, 0x08, 0x18, 0x06, 0x00, 0x57, 0x00, 0x00, 0x00, 0x10, 0x02, 0x00,
   0x63, 0x00, 0x00, 0x00, 0x10, 0x00, 0x90, 0x13, 0x00, 0x00, 0x00, 0x30,
   0x02, 0x80, 0x83, 0x00, 0x00, 0x00, 0x14, 0x04, 0xf8, 0x47, 0x00, 0x00,
   0x00, 0x30, 0x02, 0x27, 0x12, 0x00, 0x00, 0x18, 0x18, 0x84, 0x05, 0x63,
   0x00, 0x00, 0x00, 0x19, 0x42, 0x00, 0x1c, 0x00, 0x00, 0x30, 0x09, 0x66,
   0x00, 0x08, 0x00, 0x00, 0x4c, 0x23, 0x54, 0x00, 0x00, 0x00, 0x00, 0x1b,
   0x2c, 0x22, 0x00, 0x00, 0x00, 0x70, 0x01, 0x30, 0x54, 0x00, 0x18, 0x00,
   0xb8, 0x01, 0x60, 0x14, 0x00, 0x62, 0x00, 0x54, 0x03, 0x30, 0x1a, 0x80,
   0x2d, 0x00, 0xca, 0x03, 0x20, 0x1c, 0xfc, 0x14, 0x00, 0xfe, 0x02, 0x26,
   0x15, 0xc3, 0x5a, 0x00, 0x6c, 0xc3, 0x4f, 0xcd, 0x40, 0x72, 0x00, 0x4a,
   0x82, 0x79, 0x75, 0x80, 0x48, 0x00, 0xa8, 0x02, 0x4c, 0x1d, 0xa0, 0x12,
   0x00, 0xe0, 0x00, 0xf8, 0x15, 0x80, 0x1b, 0x00, 0x78, 0x01, 0x60, 0x15,
   0x00, 0x27, 0x00, 0x10, 0x00, 0x40, 0x05, 0x00, 0x1e, 0x00, 0x00, 0x00,
   0x00, 0x84, 0x00, 0x00, 0x00, 0x00, 0x00, 0x7c, 0xf7, 0x00, 0x00, 0x00,
   0x00, 0x00, 0x78, 0x64, 0x00, 0x00, 0x00, 0x00, 0x00, 0x28, 0x60, 0x00,
   0x00, 0x00, 0x00, 0x00, 0x28, 0x60, 0x00, 0x00, 0x00, 0x00, 0x00, 0x50,
   0x60, 0x00, 0x00, 0x00, 0x00, 0x00, 0x50, 0x20, 0x00, 0x00, 0x00, 0x00,
   0x00, 0x50, 0x01, 0x00, 0x00, 0x00, 0x00, 0x00, 0x50, 0x20, 0x00, 0x00,
   0x00, 0x00, 0x00, 0xd0, 0x22, 0x00, 0x00, 0x00, 0x00, 0x00, 0xa0, 0x00,
   0x00, 0x00, 0x00, 0x00, 0x00, 0x60, 0x12, 0x00, 0x00, 0x00, 0x00, 0x00,
   0xe0, 0x00, 0x00, 0x00, 0x00, 0x69, 0x57, 0xbd, 0xb0, 0x4b, 0x45, 0x00,
   0x00, 0x00, 0xf8, 0x1f, 0x00, 0x00, 0x00, 0x8a, 0x00, 0x00, 0x00, 0x00,
   0x00, 0x00};
