#define tail_down_width 5
#define tail_down_height 16
static char tail_down_bits[] = {
   0x00, 0x01, 0x03, 0x07, 0x07, 0x0e, 0x0c, 0x0c, 0x08, 0x18, 0x10, 0x10,
   0x10, 0x10, 0x10, 0x00};
