#define tail_up_2_width 5
#define tail_up_2_height 20
static char tail_up_2_bits[] = {
   0x08, 0x10, 0x10, 0x10, 0x10, 0x08, 0x18, 0x1c, 0x1c, 0x16, 0x17, 0x1b,
   0x0b, 0x0d, 0x0c, 0x0e, 0x07, 0x07, 0x03, 0x01};
