#define tail_down_1_width 5
#define tail_down_1_height 14
static char tail_down_1_bits[] = {
   0x01, 0x03, 0x07, 0x07, 0x0e, 0x0c, 0x0c, 0x08, 0x18, 0x10, 0x10, 0x10,
   0x10, 0x10};
