#define tail_down_3_width 5
#define tail_down_3_height 26
static char tail_down_3_bits[] = {
   0x01, 0x03, 0x07, 0x07, 0x0e, 0x0c, 0x0d, 0x0b, 0x1b, 0x17, 0x16, 0x1c,
   0x1d, 0x1b, 0x0b, 0x17, 0x16, 0x1c, 0x1c, 0x18, 0x08, 0x18, 0x10, 0x10,
   0x10, 0x10};
