#define tail_up_1_width 5
#define tail_up_1_height 14
static char tail_up_1_bits[] = {
   0x08, 0x10, 0x10, 0x10, 0x10, 0x18, 0x08, 0x0c, 0x0c, 0x0e, 0x07, 0x07,
   0x03, 0x01};
