#define text_above_large_width 14
#define text_above_large_height 16
static char text_above_large_bits[] = {
   0x6c, 0x00, 0x6c, 0x00, 0x6c, 0x00, 0x00, 0x00, 0xfe, 0x1f, 0x00, 0x00,
   0xfe, 0x1f, 0x00, 0x00, 0xfe, 0x1f, 0x00, 0x00, 0xfe, 0x1f, 0x00, 0x00,
   0xfe, 0x1f, 0x00, 0x00, 0x00, 0x00, 0x00, 0x00};
