#define text_below_width 14
#define text_below_height 16
static char text_below_bits[] = {
   0x00, 0x00, 0x00, 0x00, 0x00, 0x00, 0xfe, 0x1f, 0x00, 0x00, 0xfe, 0x1f,
   0x00, 0x00, 0xfe, 0x1f, 0x00, 0x00, 0xfe, 0x1f, 0x00, 0x00, 0xfe, 0x1f,
   0x00, 0x00, 0x6c, 0x00, 0x6c, 0x00, 0x00, 0x00};
