#define text_below_italic_width 14
#define text_below_italic_height 16
static char text_below_italic_bits[] = {
   0x00, 0x00, 0x00, 0x00, 0x00, 0x00, 0xfe, 0x1f, 0x00, 0x00, 0xfe, 0x1f,
   0x00, 0x00, 0xfe, 0x1f, 0x00, 0x00, 0xfe, 0x1f, 0x00, 0x00, 0xfe, 0x1f,
   0x00, 0x00, 0x6c, 0x00, 0x36, 0x00, 0x00, 0x00};
