#define ticked_width 12
#define ticked_height 12
static char ticked_bits[] = {
   0x00, 0x08, 0x00, 0x0c, 0x00, 0x06, 0x00, 0x03, 0x80, 0x03, 0xc0, 0x01,
   0xc3, 0x00, 0xef, 0x00, 0x7e, 0x00, 0x7c, 0x00, 0x38, 0x00, 0x30, 0x00};
