#define up_width 12
#define up_height 12
static char up_bits[] = {
   0x00, 0x00, 0x00, 0x00, 0x00, 0x00, 0x60, 0x00, 0xd0, 0x00, 0x88, 0x01,
   0x04, 0x03, 0x02, 0x06, 0x02, 0x06, 0xfe, 0x07, 0x00, 0x00, 0x00, 0x00};
