#define down_width 12
#define down_height 12
static char down_bits[] = {
   0x00, 0x00, 0x00, 0x00, 0x00, 0x00, 0x00, 0x00, 0x00, 0x00, 0xfe, 0x07,
   0x06, 0x04, 0x06, 0x04, 0x0c, 0x02, 0x18, 0x01, 0xb0, 0x00, 0x60, 0x00};
