#define left_arrow_width 32
#define left_arrow_height 15
static char left_arrow_bits[] = {
   0x00, 0x00, 0x00, 0x00, 0x00, 0x00, 0x16, 0x00, 0x00, 0x00, 0x15, 0x00,
   0x00, 0x80, 0x14, 0x00, 0x00, 0x40, 0x14, 0x00, 0x00, 0x20, 0x14, 0x00,
   0x00, 0x10, 0x14, 0x00, 0x00, 0x08, 0x14, 0x00, 0x00, 0x10, 0x14, 0x00,
   0x00, 0x20, 0x14, 0x00, 0x00, 0x40, 0x14, 0x00, 0x00, 0x80, 0x14, 0x00,
   0x00, 0x00, 0x15, 0x00, 0x00, 0x00, 0x16, 0x00, 0x00, 0x00, 0x00, 0x00};
