#define left_width 12
#define left_height 12
static char left_bits[] = {
   0x00, 0x00, 0x00, 0x00, 0xc0, 0x01, 0x20, 0x01, 0x10, 0x01, 0x08, 0x01,
   0x04, 0x01, 0x0c, 0x01, 0x18, 0x01, 0x30, 0x01, 0xe0, 0x01, 0xc0, 0x01};
