#define right_arrow_width 32
#define right_arrow_height 15
static char right_arrow_bits[] = {
   0x00, 0x00, 0x00, 0x00, 0x00, 0x68, 0x00, 0x00, 0x00, 0xa8, 0x00, 0x00,
   0x00, 0x28, 0x01, 0x00, 0x00, 0x28, 0x02, 0x00, 0x00, 0x28, 0x04, 0x00,
   0x00, 0x28, 0x08, 0x00, 0x00, 0x28, 0x10, 0x00, 0x00, 0x28, 0x08, 0x00,
   0x00, 0x28, 0x04, 0x00, 0x00, 0x28, 0x02, 0x00, 0x00, 0x28, 0x01, 0x00,
   0x00, 0xa8, 0x00, 0x00, 0x00, 0x68, 0x00, 0x00, 0x00, 0x00, 0x00, 0x00};
